<svg width="65" height="23" viewBox="0 0 65 23" fill="none" xmlns="http://www.w3.org/2000/svg">
<path d="M29.9611 10.222L26.899 0.645996H28.692L30.5601 6.638C30.5588 6.73164 30.5713 6.82496 30.597 6.915C30.6317 7.10033 30.669 7.30533 30.709 7.53C30.749 7.792 30.804 8.08966 30.874 8.423H31.0081L31.337 6.57L33.01 2.052H34.459L36.103 6.597C36.1092 6.69397 36.1291 6.78959 36.162 6.881C36.212 7.06966 36.267 7.277 36.327 7.503C36.3937 7.765 36.4684 8.06233 36.551 8.395H36.6851L36.924 6.61L38.7711 0.645996H40.549L37.4871 10.222H35.649L33.976 5.542L33.767 4.342H33.6671L33.548 4.942C33.518 5.09533 33.488 5.233 33.458 5.355C33.428 5.476 33.418 5.537 33.428 5.537L31.799 10.23L29.9611 10.222Z" fill="white"/>
<path d="M41.27 1.45703C41.2679 1.32524 41.2941 1.19454 41.3469 1.07377C41.3997 0.952998 41.4778 0.844981 41.576 0.757032C41.7857 0.565386 42.0621 0.463445 42.346 0.473032C42.6315 0.464817 42.9093 0.566471 43.122 0.757032C43.2221 0.843854 43.302 0.951467 43.3563 1.07237C43.4105 1.19326 43.4377 1.32454 43.436 1.45703C43.4377 1.58953 43.4105 1.7208 43.3563 1.8417C43.302 1.9626 43.2221 2.07021 43.122 2.15703C42.9093 2.34768 42.6315 2.44935 42.346 2.44103C42.0621 2.45062 41.7857 2.34868 41.576 2.15703C41.4778 2.06908 41.3997 1.96107 41.3469 1.8403C41.2941 1.71953 41.2679 1.58882 41.27 1.45703ZM43.152 10.222H41.464V3.22903H43.152V10.222Z" fill="white"/>
<path d="M47.7241 10.3569C47.3458 10.3569 46.9692 10.3068 46.6041 10.2079C46.2513 10.1161 45.9175 9.96272 45.6181 9.75493C45.3346 9.55799 45.0975 9.30173 44.9231 9.00393C44.7426 8.68218 44.6525 8.31768 44.6621 7.94893V5.48393C44.6531 5.11302 44.7432 4.74642 44.9231 4.42193C45.095 4.12227 45.3326 3.8655 45.6181 3.67093C45.919 3.46736 46.2525 3.31654 46.6041 3.22493C46.9692 3.12607 47.3458 3.07596 47.7241 3.07593C48.0958 3.07621 48.4657 3.12632 48.8241 3.22493C49.171 3.31652 49.4995 3.46741 49.7951 3.67093C50.0773 3.86713 50.3123 4.12366 50.4831 4.42193C50.6628 4.74649 50.7529 5.11304 50.7441 5.48393V7.40493H46.3241V7.89193C46.3205 8.0426 46.3619 8.19092 46.4431 8.31793C46.5248 8.44176 46.6285 8.54955 46.7491 8.63593C46.8802 8.72814 47.0269 8.7959 47.1821 8.83593C47.3503 8.88122 47.5239 8.90376 47.6981 8.90293C47.9817 8.90402 48.263 8.85143 48.5271 8.74793C48.7892 8.64571 49.0045 8.45066 49.1321 8.19993L50.5061 8.91693C50.3611 9.1558 50.1769 9.36846 49.9611 9.54593C49.7496 9.71995 49.5191 9.86956 49.2741 9.99193C49.0299 10.1135 48.7716 10.2042 48.5051 10.2619C48.25 10.319 47.9895 10.3485 47.7281 10.3499M49.1621 5.50793C49.1653 5.35716 49.1235 5.20885 49.0421 5.08193C48.9586 4.95647 48.8491 4.85041 48.7211 4.77093C48.5806 4.68318 48.4265 4.61931 48.2651 4.58193C48.0938 4.54103 47.9182 4.52055 47.7421 4.52093C47.5637 4.52088 47.3858 4.54135 47.2121 4.58193C47.0482 4.61841 46.8917 4.68231 46.7491 4.77093C46.6197 4.85157 46.5099 4.96024 46.4281 5.08893C46.3478 5.22303 46.3127 5.37938 46.3281 5.53493V6.17093H49.1661L49.1621 5.50793Z" fill="white"/>
<path d="M54.745 8.97713H54.79C55.0436 8.98332 55.2932 8.91368 55.507 8.77712C55.6052 8.71294 55.6864 8.62593 55.7437 8.52354C55.801 8.42115 55.8327 8.30641 55.836 8.18913C55.8397 8.07286 55.7997 7.95943 55.724 7.87112C55.6421 7.78006 55.5428 7.70628 55.4319 7.65413C55.304 7.59281 55.17 7.54522 55.032 7.51213C54.8873 7.47613 54.7503 7.44479 54.621 7.41813C54.3213 7.36706 54.0246 7.3003 53.732 7.21812C53.4165 7.13224 53.1138 7.00479 52.832 6.83912C52.5601 6.67867 52.3259 6.46179 52.145 6.20312C51.9517 5.91085 51.8552 5.56524 51.869 5.21513C51.8582 4.86666 51.9519 4.52294 52.1379 4.22812C52.3139 3.96081 52.5455 3.73465 52.817 3.56512C53.1026 3.38942 53.4161 3.26362 53.744 3.19312C54.0748 3.11815 54.4128 3.07959 54.752 3.07812C55.6879 3.0897 56.5869 3.44571 57.277 4.07812L56.291 5.05212C56.0597 4.84736 55.7867 4.6952 55.491 4.60612C55.2003 4.51095 54.8968 4.4607 54.5909 4.45712C54.3332 4.45056 54.0775 4.50396 53.844 4.61312C53.7482 4.654 53.6655 4.72037 53.6048 4.805C53.5441 4.88964 53.5079 4.9893 53.5 5.09312C53.4888 5.1631 53.4918 5.23462 53.509 5.30337C53.5262 5.37213 53.5571 5.43668 53.6 5.49312C53.6893 5.61 53.8042 5.70478 53.936 5.77012C54.0857 5.84666 54.2438 5.90571 54.407 5.94613C54.581 5.99146 54.7476 6.02746 54.907 6.05412C55.2173 6.10081 55.5243 6.16761 55.826 6.25413C56.1157 6.3333 56.3905 6.45893 56.64 6.62613C56.8776 6.78744 57.0787 6.99698 57.23 7.24113C57.3925 7.52195 57.4726 7.84288 57.461 8.16713C57.4688 8.50316 57.3917 8.83574 57.237 9.13412C57.0912 9.40424 56.886 9.63777 56.637 9.81713C56.3744 10.004 56.0814 10.1437 55.771 10.2301C55.4407 10.325 55.0986 10.3728 54.7549 10.3721C54.4459 10.3726 54.1377 10.3391 53.836 10.2721C53.5353 10.2056 53.2443 10.1011 52.97 9.96112C52.6971 9.82198 52.4456 9.64452 52.223 9.43412C51.9992 9.22218 51.8147 8.97233 51.678 8.69613L52.903 7.97912C53.1075 8.30875 53.4035 8.57176 53.7549 8.73612C54.0611 8.89041 54.3982 8.97348 54.741 8.97912" fill="white"/>
<path d="M61.632 10.3569C61.2534 10.3569 60.8765 10.3068 60.511 10.2079C60.1582 10.1162 59.8244 9.96285 59.525 9.75493C59.2419 9.55791 59.0052 9.30165 58.831 9.00393C58.6502 8.68232 58.5596 8.31779 58.569 7.94893V5.48393C58.5602 5.11291 58.6507 4.74628 58.831 4.42193C59.0026 4.12236 59.2399 3.86559 59.525 3.67093C59.826 3.46736 60.1594 3.31654 60.511 3.22493C60.8765 3.12604 61.2534 3.07593 61.632 3.07593C62.0037 3.07626 62.3737 3.12637 62.732 3.22493C63.0789 3.31682 63.4074 3.46769 63.7031 3.67093C63.9848 3.8673 64.2194 4.12381 64.39 4.42193C64.5702 4.74636 64.6606 5.11294 64.652 5.48393V7.40493H60.23V7.89193C60.2265 8.04259 60.268 8.19089 60.3491 8.31793C60.431 8.44188 60.5351 8.54968 60.6561 8.63593C60.7872 8.72814 60.9338 8.7959 61.089 8.83593C61.2573 8.8812 61.4308 8.90373 61.605 8.90293C61.8887 8.90397 62.1699 8.85138 62.434 8.74793C62.6943 8.64476 62.9078 8.44981 63.034 8.19993L64.409 8.91693C64.264 9.15569 64.0797 9.36832 63.864 9.54593C63.6523 9.71973 63.422 9.86932 63.1771 9.99193C62.9325 10.1134 62.6739 10.2041 62.407 10.2619C62.1523 10.319 61.8921 10.3485 61.631 10.3499M63.0651 5.50793C63.0681 5.35718 63.0263 5.20893 62.9451 5.08193C62.8615 4.95656 62.752 4.85053 62.624 4.77093C62.4838 4.68328 62.3301 4.61942 62.1691 4.58193C61.9977 4.54109 61.8222 4.52061 61.646 4.52093C61.4676 4.52084 61.2898 4.54131 61.116 4.58193C60.9521 4.61836 60.7956 4.68226 60.653 4.77093C60.5237 4.8517 60.414 4.96035 60.332 5.08893C60.2521 5.22319 60.2171 5.37941 60.232 5.53493V6.17093H63.071L63.0651 5.50793Z" fill="white"/>
<path d="M31.258 21.086C31.5352 21.0865 31.8116 21.056 32.082 20.995C32.3348 20.9407 32.5785 20.8508 32.806 20.7281C33.0105 20.6176 33.1862 20.4607 33.319 20.2701C33.4512 20.075 33.5193 19.8436 33.514 19.608V19.03C33.5207 18.801 33.4583 18.5752 33.335 18.382C33.2116 18.2002 33.0463 18.0506 32.853 17.946C32.6342 17.8274 32.3979 17.744 32.153 17.6991C31.8788 17.6469 31.6001 17.6211 31.321 17.622C30.8919 17.6182 30.4639 17.6632 30.045 17.7561C29.6146 17.8609 29.1933 18 28.785 18.1721L27.785 18.2001V12.623H34.738V14.242H29.533V16.326C29.813 16.2514 30.0984 16.1847 30.389 16.126C30.6517 16.0884 30.9167 16.0697 31.182 16.07H31.322C31.7987 16.07 32.2737 16.1267 32.737 16.239C33.1826 16.3429 33.6082 16.5189 33.997 16.76C34.3634 16.9888 34.6715 17.2997 34.897 17.668C35.1355 18.0759 35.2592 18.5406 35.255 19.013V19.619C35.2655 20.0956 35.1444 20.5658 34.905 20.9781C34.6741 21.3655 34.3606 21.6974 33.987 21.9501C33.593 22.2151 33.1563 22.4103 32.696 22.527C32.2162 22.6533 31.7221 22.7172 31.226 22.717C30.4479 22.7156 29.6819 22.5248 28.994 22.161C28.6417 21.9737 28.3172 21.7381 28.03 21.461C27.7337 21.1783 27.4842 20.8502 27.291 20.489L28.878 19.814C29.1096 20.2298 29.4661 20.5621 29.897 20.764C30.3208 20.9715 30.7862 21.0799 31.258 21.081" fill="white"/>
<path d="M40.341 21.077C40.6258 21.0778 40.9098 21.0473 41.188 20.986C41.443 20.9327 41.6873 20.8374 41.911 20.704C42.1111 20.5841 42.2835 20.4233 42.417 20.232C42.5474 20.0414 42.6153 19.8149 42.611 19.584C42.6338 19.3538 42.5955 19.1217 42.5 18.911C42.4045 18.7004 42.2552 18.5186 42.067 18.384C41.6464 18.1284 41.1585 18.0058 40.667 18.032H39.314V16.552H40.605C41.0044 16.5713 41.3995 16.4627 41.733 16.242C41.8748 16.1372 41.9881 15.9985 42.0627 15.8387C42.1373 15.6789 42.1707 15.503 42.16 15.327C42.1646 15.1282 42.1107 14.9324 42.005 14.764C41.902 14.6051 41.7654 14.4706 41.605 14.37C41.4269 14.2619 41.2323 14.1835 41.029 14.138C40.8097 14.0864 40.5852 14.0606 40.36 14.061C39.924 14.0636 39.4948 14.1699 39.108 14.371C38.6949 14.5819 38.3487 14.9036 38.108 15.3L36.553 14.567C36.7341 14.2274 36.9707 13.9206 37.253 13.659C37.805 13.1492 38.4762 12.7861 39.205 12.603C39.5585 12.5142 39.9215 12.4692 40.286 12.469C40.7454 12.468 41.2029 12.5272 41.647 12.645C42.0656 12.7526 42.4627 12.9312 42.821 13.173C43.1589 13.4032 43.4408 13.7063 43.646 14.06C43.8607 14.4471 43.968 14.8845 43.957 15.327C43.9564 15.5002 43.9353 15.6728 43.894 15.841C43.8525 16.0167 43.785 16.1852 43.694 16.341C43.5935 16.5096 43.4677 16.6617 43.321 16.792C43.1506 16.9416 42.9558 17.0606 42.745 17.144C43.0456 17.2435 43.327 17.3937 43.577 17.588C43.7785 17.7488 43.9499 17.9442 44.083 18.165C44.2074 18.3761 44.2943 18.6072 44.34 18.848C44.3867 19.0939 44.4101 19.3437 44.41 19.594C44.4113 20.076 44.2851 20.5497 44.044 20.967C43.8143 21.3529 43.501 21.6824 43.127 21.931C42.7268 22.1938 42.2849 22.3865 41.82 22.501C41.3244 22.6281 40.8146 22.692 40.303 22.691C39.8946 22.6904 39.4876 22.6431 39.09 22.55C38.687 22.4567 38.2975 22.3126 37.931 22.121C37.5617 21.9279 37.2214 21.6838 36.92 21.396C36.6127 21.1034 36.3578 20.7605 36.166 20.382L37.799 19.692C37.9114 19.9152 38.0644 20.1156 38.25 20.283C38.4376 20.453 38.6467 20.5976 38.872 20.713C39.3298 20.9466 39.836 21.0695 40.35 21.072" fill="white"/>
<path d="M45.769 19.7491V15.4491C45.7567 14.9779 45.881 14.5132 46.127 14.1111C46.3637 13.7375 46.6794 13.4204 47.052 13.1821C47.4469 12.9313 47.8808 12.7482 48.336 12.6401C48.7988 12.5246 49.274 12.4655 49.751 12.4641C50.2258 12.4652 50.6986 12.5243 51.159 12.6401C51.6109 12.7493 52.0418 12.9324 52.434 13.1821C52.8069 13.4203 53.1229 13.7375 53.36 14.1111C53.6058 14.5133 53.7302 14.9779 53.718 15.4491V19.7491C53.7297 20.2168 53.6053 20.6778 53.36 21.0761C53.1231 21.4499 52.807 21.7671 52.434 22.0051C52.0419 22.2551 51.6111 22.4383 51.159 22.5471C50.6986 22.663 50.2258 22.7221 49.751 22.7231C49.274 22.7218 48.7988 22.6627 48.336 22.5471C47.8807 22.4394 47.4467 22.2562 47.052 22.0051C46.6793 21.767 46.3635 21.4498 46.127 21.0761C45.8821 20.6787 45.7578 20.2188 45.769 19.7521M47.511 19.8081C47.5029 20.0463 47.5771 20.2801 47.721 20.4701C47.8659 20.6529 48.0488 20.802 48.257 20.9071C48.4845 21.0229 48.7283 21.1035 48.98 21.1461C49.4891 21.2401 50.011 21.2401 50.52 21.1461C50.7717 21.1035 51.0155 21.0229 51.243 20.9071C51.4501 20.8033 51.6309 20.6538 51.772 20.4701C51.9103 20.2778 51.9806 20.0449 51.972 19.8081V15.5081C51.9797 15.2693 51.9096 15.0345 51.772 14.8391C51.6336 14.6528 51.4521 14.5028 51.243 14.4021C51.0142 14.291 50.7707 14.2129 50.52 14.1701C50.011 14.0764 49.4891 14.0764 48.98 14.1701C48.7293 14.213 48.4859 14.2911 48.257 14.4021C48.0467 14.504 47.8632 14.6537 47.721 14.8391C47.5777 15.0321 47.5037 15.2678 47.511 15.5081V19.8081Z" fill="white"/>
<path d="M10.92 22.485L8.90399 21.434V10.669L16.977 6.442C16.6101 6.18411 16.2217 5.95828 15.816 5.767C15.6455 5.63713 15.4385 5.56416 15.2242 5.55842C15.0099 5.55268 14.7992 5.61445 14.622 5.735C12.235 7.015 9.82199 8.253 7.41699 9.509C7.28827 9.58871 7.16413 9.67552 7.04504 9.769V20.461L0.978027 17.292V6.534L11.22 1.177C11.927 1.525 12.606 1.859 13.325 2.29L3.151 7.613V16.313C3.67536 16.6274 4.21799 16.9102 4.776 17.16C4.934 16.985 4.87604 16.811 4.87604 16.652C4.8807 14.144 4.8807 11.636 4.87604 9.128C4.85662 8.98509 4.88388 8.83973 4.9538 8.71358C5.02372 8.58744 5.13255 8.48727 5.26404 8.428C8.53737 6.73134 11.8057 5.027 15.069 3.315C15.1247 3.2941 15.1818 3.27739 15.24 3.265L21.273 6.414L10.956 11.814C10.997 15.358 11.102 18.886 10.915 22.491" fill="#F3040C"/>
<path d="M20.0811 8.46311V16.7141C19.4811 17.0591 18.881 17.3831 18.196 17.7141V9.47411C17.425 9.86111 16.825 10.1881 16.14 10.5311V18.7891C15.54 19.1221 14.94 19.4411 14.169 19.8241V11.5741C13.483 11.9301 12.813 12.2441 12.182 12.6321L12.204 21.1441C12.185 21.5961 12.204 22.0441 12.204 22.5011C12.204 22.6351 12.1671 22.7901 12.3781 22.9211C15.6231 21.2211 18.878 19.5211 22.132 17.8311V7.43311C21.447 7.79111 20.762 8.11511 20.077 8.46711" fill="#F3040C"/>
</svg>
