<svg width="80" height="20" viewBox="0 0 80 20" fill="none" xmlns="http://www.w3.org/2000/svg">
<path d="M18.0041 6.53694H15.0341C14.6363 6.53694 14.2547 6.69498 13.9734 6.97628C13.6921 7.25759 13.5341 7.63912 13.5341 8.03694V11.5109C13.5341 11.5562 13.5223 11.6007 13.4999 11.64C13.4774 11.6794 13.4452 11.7122 13.4063 11.7353C13.3673 11.7584 13.323 11.771 13.2778 11.7718C13.2325 11.7726 13.1878 11.7616 13.1481 11.7399C12.936 11.6294 12.7003 11.5718 12.4611 11.5719H8.40308C8.16389 11.5717 7.92818 11.6294 7.71608 11.7399C7.67634 11.7616 7.63165 11.7726 7.58638 11.7718C7.54112 11.771 7.49685 11.7584 7.45791 11.7353C7.41898 11.7122 7.38672 11.6794 7.36431 11.64C7.3419 11.6007 7.3301 11.5562 7.33008 11.5109V8.03394C7.33008 7.63612 7.17205 7.25459 6.89074 6.97328C6.60944 6.69198 6.22791 6.53394 5.83008 6.53394H2.86108C3.28358 4.8457 4.25819 3.34709 5.63004 2.27625C7.00189 1.20541 8.69228 0.623779 10.4326 0.623779C12.1729 0.623779 13.8633 1.20541 15.2351 2.27625C16.607 3.34709 17.5816 4.8457 18.0041 6.53394" fill="#F3040C"/>
<path d="M24.6151 5.461C24.6151 2.877 26.0691 1.291 28.4451 1.291C28.8844 1.26046 29.3254 1.31713 29.7428 1.45775C30.1601 1.59836 30.5455 1.82015 30.8767 2.11033C31.208 2.40051 31.4786 2.75336 31.6729 3.14855C31.8673 3.54374 31.9815 3.97347 32.0091 4.413H30.0691C30.0335 4.0107 29.8456 3.6372 29.5437 3.36895C29.2418 3.10069 28.8487 2.95797 28.4451 2.97C27.3451 2.97 26.6671 3.914 26.6671 5.456C26.6671 6.998 27.3421 7.956 28.4501 7.956C28.85 7.97166 29.2408 7.83471 29.5435 7.57289C29.8462 7.31107 30.038 6.94398 30.0801 6.546H32.0091C31.9839 6.98526 31.8709 7.41502 31.6768 7.80984C31.4826 8.20465 31.2111 8.55649 30.8785 8.84452C30.5459 9.13255 30.1589 9.35092 29.7404 9.4867C29.3219 9.62248 28.8804 9.67291 28.4421 9.635C26.0711 9.635 24.6121 8.044 24.6121 5.459" fill="white"/>
<path d="M37.416 7.68398H34.831L34.321 9.42298H32.321L34.978 1.50098H37.442L40.103 9.41898H37.9081L37.416 7.68398ZM35.216 6.23498H37.038L36.188 3.28798H36.088L35.216 6.23498Z" fill="white"/>
<path d="M42.6601 7.16802C42.7091 7.74402 43.2861 8.11202 44.1201 8.11202C44.8721 8.11202 45.3881 7.75001 45.3881 7.22901C45.3881 6.79001 45.0421 6.55402 44.1371 6.37302L43.0941 6.16402C41.6451 5.89002 40.8941 5.10001 40.8941 3.85401C40.8941 2.30701 42.1341 1.29102 44.0441 1.29102C45.8991 1.29102 47.1831 2.29101 47.2161 3.76001H45.3601C45.3087 3.46728 45.1468 3.2055 44.9078 3.02885C44.6688 2.8522 44.371 2.77421 44.0761 2.81102C43.3681 2.81102 42.9021 3.14601 42.9021 3.67301C42.9021 4.10601 43.2531 4.35902 44.0871 4.52302L45.1071 4.72302C46.6711 5.02302 47.3731 5.73301 47.3731 6.98901C47.3731 8.64101 46.1111 9.63902 44.0371 9.63902C42.0371 9.63902 40.7721 8.69501 40.7371 7.17001L42.6601 7.16802Z" fill="white"/>
<path d="M50.397 9.42395V3.12395H48.114V1.50195H54.693V3.12095H52.405V9.42095L50.397 9.42395Z" fill="white"/>
<path d="M57.7921 1.50488H55.7781V9.42288H57.7921V1.50488Z" fill="white"/>
<path d="M64.6901 9.42395H59.3101V1.50195H61.3241V7.75795H64.6901V9.42395Z" fill="white"/>
<path d="M71.183 9.42395H65.8051V1.50195H67.819V7.75795H71.183V9.42395Z" fill="white"/>
<path d="M76.861 7.68388H74.276L73.766 9.42288H71.766L74.422 1.50488H76.886L79.548 9.42288H77.348L76.861 7.68388ZM74.661 6.23488H76.482L75.632 3.28788H75.532L74.661 6.23488Z" fill="white"/>
<path d="M24.679 17.0311C24.6654 16.6245 24.7999 16.2269 25.0574 15.912C25.3149 15.5971 25.6779 15.3864 26.079 15.3191V15.2441C25.7498 15.1583 25.4594 14.963 25.2557 14.6905C25.052 14.4179 24.947 14.0842 24.958 13.7441C25.0492 13.2416 25.3138 12.787 25.7059 12.4597C26.0979 12.1324 26.5924 11.9531 27.103 11.9531C27.6137 11.9531 28.1082 12.1324 28.5002 12.4597C28.8922 12.787 29.1569 13.2416 29.248 13.7441C29.2609 14.0846 29.1566 14.4192 28.9526 14.6922C28.7486 14.9651 28.4572 15.1599 28.127 15.2441V15.3181C28.5282 15.3854 28.8912 15.5961 29.1487 15.911C29.4062 16.2259 29.5407 16.6235 29.527 17.0301C29.527 18.1791 28.527 18.9841 27.108 18.9841C25.689 18.9841 24.689 18.1841 24.689 17.0301M28.681 16.9691C28.681 16.2011 28.039 15.6691 27.108 15.6691C26.177 15.6691 25.536 16.1991 25.536 16.9691C25.536 17.7391 26.178 18.2691 27.108 18.2691C28.038 18.2691 28.681 17.7391 28.681 16.9691ZM28.43 13.8241C28.47 13.5544 28.4266 13.2789 28.3055 13.0346C28.1844 12.7904 27.9914 12.589 27.7526 12.4576C27.5137 12.3261 27.2403 12.2709 26.9692 12.2993C26.698 12.3278 26.4421 12.4385 26.2356 12.6166C26.0292 12.7947 25.8823 13.0318 25.8145 13.2958C25.7467 13.5599 25.7613 13.8384 25.8564 14.0939C25.9514 14.3495 26.1224 14.5698 26.3463 14.7253C26.5703 14.8809 26.8364 14.9642 27.109 14.9641C27.2722 14.9845 27.4379 14.9705 27.5953 14.9229C27.7528 14.8753 27.8985 14.7952 28.023 14.6878C28.1475 14.5803 28.2481 14.4479 28.3182 14.2991C28.3883 14.1503 28.4264 13.9885 28.43 13.8241Z" fill="white"/>
<path d="M30.5391 17.2259H31.4001C31.4764 17.5226 31.6517 17.7845 31.897 17.9681C32.1422 18.1518 32.4428 18.2462 32.7491 18.2359C33.8421 18.2359 34.4611 17.2679 34.5081 15.4819H34.4341C34.265 15.806 34.0072 16.0752 33.6907 16.2581C33.3743 16.4411 33.0123 16.5301 32.6471 16.5149C32.3519 16.5224 32.0583 16.4692 31.7845 16.3584C31.5108 16.2476 31.2628 16.0816 31.056 15.8708C30.8491 15.6601 30.6879 15.409 30.5823 15.1332C30.4767 14.8574 30.4289 14.5629 30.4421 14.2679C30.4323 13.958 30.4868 13.6495 30.6022 13.3618C30.7176 13.0741 30.8914 12.8134 31.1126 12.5962C31.3337 12.3789 31.5975 12.2099 31.8872 12.0997C32.177 11.9895 32.4864 11.9405 32.7961 11.9559C33.2762 11.9488 33.7465 12.0921 34.141 12.3658C34.5355 12.6394 34.8345 13.0297 34.9961 13.4819C35.2297 14.0769 35.3405 14.7129 35.3221 15.3519C35.3221 17.6599 34.3821 18.9809 32.7401 18.9809C32.2225 19.0072 31.7132 18.8434 31.308 18.5204C30.9028 18.1973 30.6297 17.7373 30.5401 17.2269M34.3231 14.2679C34.3298 14.0657 34.296 13.8643 34.2237 13.6753C34.1514 13.4864 34.0421 13.3139 33.9021 13.1678C33.7621 13.0218 33.5944 12.9053 33.4087 12.825C33.223 12.7448 33.0232 12.7025 32.8209 12.7006C32.6186 12.6987 32.418 12.7373 32.2309 12.8141C32.0438 12.8909 31.8739 13.0044 31.7313 13.1478C31.5886 13.2912 31.4761 13.4617 31.4004 13.6493C31.3246 13.8368 31.2871 14.0376 31.2901 14.2399C31.2834 14.442 31.3171 14.6435 31.3894 14.8324C31.4617 15.0213 31.5711 15.1939 31.711 15.3399C31.851 15.4859 32.0188 15.6025 32.2044 15.6827C32.3901 15.763 32.59 15.8053 32.7922 15.8072C32.9945 15.809 33.1951 15.7704 33.3822 15.6936C33.5693 15.6168 33.7392 15.5034 33.8819 15.3599C34.0245 15.2165 34.137 15.046 34.2128 14.8585C34.2885 14.6709 34.326 14.4701 34.3231 14.2679Z" fill="white"/>
<path d="M36.247 17.0311C36.2334 16.6245 36.3679 16.2269 36.6254 15.912C36.8829 15.5971 37.2459 15.3864 37.647 15.3191V15.2441C37.3178 15.1583 37.0274 14.963 36.8237 14.6905C36.62 14.4179 36.515 14.0842 36.526 13.7441C36.6172 13.2416 36.8818 12.787 37.2739 12.4597C37.6659 12.1324 38.1604 11.9531 38.671 11.9531C39.1817 11.9531 39.6762 12.1324 40.0682 12.4597C40.4602 12.787 40.7249 13.2416 40.816 13.7441C40.8291 14.0846 40.7249 14.4193 40.5209 14.6923C40.3168 14.9653 40.0253 15.1601 39.695 15.2441V15.3181C40.0962 15.3854 40.4592 15.5961 40.7167 15.911C40.9742 16.2259 41.1087 16.6235 41.095 17.0301C41.095 18.1791 40.095 18.9841 38.676 18.9841C37.257 18.9841 36.257 18.1841 36.257 17.0301M40.249 16.9691C40.249 16.2011 39.607 15.6691 38.676 15.6691C37.745 15.6691 37.103 16.1991 37.103 16.9691C37.103 17.7391 37.745 18.2691 38.676 18.2691C39.607 18.2691 40.249 17.7391 40.249 16.9691ZM39.998 13.8241C40.038 13.5544 39.9946 13.2789 39.8735 13.0346C39.7524 12.7904 39.5594 12.589 39.3206 12.4576C39.0817 12.3261 38.8083 12.2709 38.5372 12.2993C38.266 12.3278 38.0101 12.4385 37.8036 12.6166C37.5972 12.7947 37.4503 13.0318 37.3825 13.2958C37.3147 13.5599 37.3293 13.8384 37.4244 14.0939C37.5194 14.3495 37.6904 14.5698 37.9143 14.7253C38.1383 14.8809 38.4044 14.9642 38.677 14.9641C38.8402 14.9845 39.0059 14.9705 39.1634 14.9229C39.3208 14.8753 39.4665 14.7952 39.591 14.6878C39.7155 14.5803 39.8161 14.4479 39.8862 14.2991C39.9563 14.1503 39.9944 13.9885 39.998 13.8241Z" fill="white"/>
<path d="M6.70503 8.03402V19.081H0.905029V8.03402C0.905029 7.80381 0.996479 7.58303 1.15926 7.42025C1.32204 7.25746 1.54282 7.16602 1.77303 7.16602H5.83103C6.06142 7.16602 6.28241 7.2574 6.44551 7.42012C6.60861 7.58285 6.7005 7.80362 6.70103 8.03402" fill="white"/>
<path d="M13.329 13.069V19.081H7.53503V13.069C7.5349 12.9549 7.55725 12.8418 7.6008 12.7364C7.64435 12.6309 7.70825 12.535 7.78885 12.4542C7.86945 12.3734 7.96518 12.3093 8.07056 12.2655C8.17594 12.2217 8.28892 12.1991 8.40303 12.199H12.461C12.5752 12.1991 12.6881 12.2217 12.7935 12.2655C12.8989 12.3093 12.9946 12.3734 13.0752 12.4542C13.1558 12.535 13.2197 12.6309 13.2633 12.7364C13.3068 12.8418 13.3292 12.9549 13.329 13.069Z" fill="white"/>
<path d="M19.96 8.03402V19.081H14.16V8.03402C14.1606 7.80362 14.2525 7.58285 14.4156 7.42012C14.5787 7.2574 14.7996 7.16602 15.03 7.16602H19.088C19.3182 7.16602 19.539 7.25746 19.7018 7.42025C19.8646 7.58303 19.956 7.80381 19.956 8.03402" fill="white"/>
</svg>
