<svg width="80" height="26" viewBox="0 0 80 26" fill="none" xmlns="http://www.w3.org/2000/svg">
<path d="M43.816 11.7128V1.07983H47.0601L47.951 7.56683L48.842 1.07983H52.1101V11.7128H50.167V4.04983L48.941 11.7128H47.0341L45.734 4.04983V11.7128H43.816Z" fill="white"/>
<path d="M54.177 9.00278V5.36278C54.1382 4.61097 54.3985 3.87436 54.901 3.31378C55.4467 2.82348 56.1545 2.55225 56.8881 2.55225C57.6217 2.55225 58.3293 2.82348 58.875 3.31378C59.3775 3.87436 59.6378 4.61097 59.599 5.36278V9.00278C59.599 10.8761 58.6954 11.8128 56.8881 11.8128C55.0807 11.8128 54.177 10.8761 54.177 9.00278ZM57.2721 9.95578C57.3628 9.80245 57.4058 9.62566 57.396 9.44778V5.01578C57.396 4.48778 57.2267 4.22378 56.8881 4.22378C56.5494 4.22378 56.38 4.48778 56.38 5.01578V9.45279C56.3706 9.63062 56.4137 9.8073 56.504 9.96078C56.5498 10.0187 56.6081 10.0654 56.6746 10.0975C56.741 10.1297 56.8138 10.1464 56.8876 10.1464C56.9614 10.1464 57.0342 10.1297 57.1006 10.0975C57.167 10.0654 57.2252 10.0187 57.271 9.96078" fill="white"/>
<path d="M61.6421 2.65298H63.8091V3.80298C63.8826 3.46639 64.0448 3.15563 64.2791 2.90298C64.3952 2.78622 64.5344 2.69503 64.6879 2.63527C64.8413 2.57551 65.0055 2.54851 65.17 2.55598C65.4243 2.536 65.6797 2.57662 65.9153 2.67449C66.1508 2.77235 66.3599 2.92469 66.5251 3.11898C66.8452 3.58873 66.9996 4.15168 66.9641 4.71898V11.713H64.8351V4.94198C64.8404 4.76541 64.8001 4.59045 64.7181 4.43398C64.6837 4.3678 64.631 4.31286 64.5663 4.27565C64.5016 4.23843 64.4277 4.22051 64.3531 4.22398C64.2565 4.21599 64.1601 4.24144 64.08 4.29605C63.9999 4.35066 63.9409 4.43113 63.9131 4.52398C63.8364 4.78718 63.8026 5.06103 63.8131 5.33498V11.71H61.6461L61.6421 2.65298Z" fill="white"/>
<path d="M69.75 11.4538C69.5069 11.1218 69.3926 10.7128 69.4281 10.3028V4.64483H68.822V2.99383H69.4281V1.07983H71.5281V2.99383H72.1471V4.64483H71.5281V9.73283C71.5233 9.84969 71.5358 9.96661 71.5651 10.0798C71.5897 10.1538 71.6563 10.1908 71.765 10.1908C71.8435 10.1912 71.9219 10.1872 72 10.1788C72.0747 10.1708 72.1241 10.1668 72.1481 10.1668V11.6518C72.0247 11.6852 71.8453 11.7202 71.61 11.7568C71.3828 11.7935 71.1532 11.8122 70.9231 11.8128C70.7129 11.8369 70.5001 11.8175 70.2977 11.7557C70.0954 11.6939 69.908 11.5912 69.7471 11.4538" fill="white"/>
<path d="M74.6021 11.045C74.151 10.3703 73.9378 9.5645 73.9961 8.75501V5.11601C73.9723 4.76542 74.024 4.41378 74.1479 4.08493C74.2718 3.75609 74.4648 3.45771 74.714 3.21001C75.2745 2.74402 75.9916 2.5094 76.719 2.55401C77.0701 2.50044 77.4287 2.52934 77.7667 2.63841C78.1046 2.74749 78.4125 2.93375 78.6659 3.18244C78.9194 3.43113 79.1114 3.73542 79.2269 4.0712C79.3423 4.40699 79.378 4.76505 79.3311 5.11701V5.77301C79.3311 6.43368 79.3227 6.97001 79.3061 7.38201H76.162V9.14001C76.1528 9.3896 76.1868 9.63891 76.2621 9.87701C76.2961 9.94603 76.3461 10.0058 76.4081 10.0513C76.4701 10.0967 76.5422 10.1265 76.6182 10.1381C76.6942 10.1497 76.772 10.1428 76.8448 10.1178C76.9175 10.0929 76.9831 10.0508 77.0361 9.99501C77.1067 9.89464 77.1495 9.77732 77.1601 9.65501C77.1727 9.52701 77.1791 9.33935 77.1791 9.09201V8.21301H79.3331V8.73301C79.399 9.55799 79.183 10.3809 78.7201 11.067C78.4468 11.3419 78.115 11.5519 77.7497 11.6815C77.3843 11.8112 76.9946 11.8571 76.6091 11.816C76.2381 11.8521 75.8638 11.8015 75.5157 11.6682C75.1676 11.5349 74.8551 11.3226 74.6031 11.048M77.178 6.30701V5.14001C77.178 4.48801 77.0171 4.16201 76.6951 4.16201C76.3318 4.16201 76.1501 4.48801 76.1501 5.14001V6.30401L77.178 6.30701Z" fill="white"/>
<path d="M44.2221 23.0189C43.7489 22.3706 43.5268 21.5726 43.5971 20.7729V19.7649H45.6271V21.0499C45.6271 21.5626 45.7914 21.8189 46.12 21.8189C46.1926 21.8269 46.266 21.8162 46.3332 21.7878C46.4004 21.7595 46.4592 21.7144 46.5041 21.6569C46.5895 21.4883 46.6269 21.2994 46.6121 21.1109C46.6203 20.8278 46.5797 20.5453 46.4921 20.2759C46.4231 20.0755 46.3195 19.8887 46.1861 19.7239C46.0621 19.5759 45.8401 19.3456 45.5201 19.0329L44.631 18.1439C44.3139 17.8631 44.0583 17.5196 43.8805 17.1351C43.7028 16.7506 43.6066 16.3335 43.5981 15.9099C43.5474 15.1877 43.7629 14.472 44.204 13.8979C44.4304 13.6596 44.7067 13.4742 45.013 13.3549C45.3193 13.2356 45.6482 13.1854 45.9761 13.2079C46.3444 13.1728 46.7157 13.221 47.0628 13.3489C47.4099 13.4768 47.7238 13.6812 47.9811 13.9469C48.4438 14.6248 48.6601 15.4408 48.594 16.2589H46.4941L46.4821 15.5499C46.4882 15.4311 46.4472 15.3147 46.3681 15.2259C46.3265 15.1848 46.2766 15.1528 46.2219 15.1322C46.1671 15.1115 46.1086 15.1025 46.0501 15.1059C45.9841 15.1009 45.9179 15.11 45.8558 15.1328C45.7937 15.1556 45.7372 15.1914 45.6901 15.2379C45.6058 15.3383 45.5628 15.467 45.5701 15.5979C45.5895 15.8023 45.6506 16.0004 45.7497 16.1802C45.8488 16.3599 45.9837 16.5174 46.146 16.6429L47.3461 17.7959C47.5986 18.0359 47.8326 18.2947 48.0461 18.5699C48.2393 18.8327 48.3891 19.1248 48.49 19.4349C48.6095 19.8176 48.6663 20.2171 48.6581 20.6179C48.7118 21.4276 48.5166 22.2342 48.0991 22.9299C47.8817 23.2041 47.5993 23.4196 47.2774 23.5569C46.9555 23.6942 46.6044 23.7488 46.256 23.7159C45.8874 23.7502 45.5156 23.7055 45.1656 23.5848C44.8155 23.4641 44.4953 23.2702 44.2261 23.0159" fill="white"/>
<path d="M50.4921 12.7739H52.592V14.2389H50.4921V12.7739ZM50.4921 14.8279H52.592V23.6189H50.4921V14.8279Z" fill="white"/>
<path d="M55.1411 22.9709C54.7028 22.3165 54.4956 21.5345 54.5521 20.7489V17.2179C54.5292 16.8774 54.5799 16.5359 54.7007 16.2167C54.8214 15.8975 55.0095 15.608 55.252 15.3679C55.7957 14.9158 56.4913 14.688 57.1971 14.7309C57.5376 14.679 57.8855 14.7071 58.2132 14.8129C58.541 14.9187 58.8396 15.0994 59.0854 15.3406C59.3313 15.5818 59.5177 15.8769 59.6297 16.2025C59.7418 16.5282 59.7764 16.8755 59.7311 17.2169V17.8519C59.7311 18.4926 59.7231 19.0129 59.7071 19.4129H56.6571V21.1179C56.6492 21.3602 56.683 21.602 56.7571 21.8329C56.79 21.8998 56.8387 21.9577 56.8989 22.0018C56.9591 22.0458 57.0291 22.0747 57.1029 22.0859C57.1766 22.0971 57.2519 22.0903 57.3225 22.0661C57.393 22.0419 57.4567 22.001 57.508 21.9469C57.5764 21.8494 57.618 21.7356 57.6281 21.6169C57.6401 21.4929 57.6461 21.3109 57.6461 21.0709V20.2179H59.7361V20.7179C59.7999 21.518 59.5905 22.3162 59.1421 22.9819C58.8769 23.2486 58.5552 23.4524 58.2008 23.5782C57.8463 23.7041 57.4681 23.7487 57.0941 23.7089C56.7342 23.744 56.371 23.6949 56.0333 23.5656C55.6956 23.4363 55.3925 23.2303 55.148 22.9639M57.648 18.3639V17.2419C57.648 16.6092 57.4917 16.2929 57.1791 16.2929C56.8271 16.2929 56.6511 16.6092 56.6511 17.2419V18.3709L57.648 18.3639Z" fill="white"/>
<path d="M61.6851 14.828H63.785V15.801C63.8721 15.4804 64.0649 15.1985 64.332 15.001C64.6158 14.8057 64.9548 14.7069 65.2991 14.719V16.472C64.969 16.4763 64.6405 16.5186 64.3201 16.598C63.9641 16.682 63.786 16.78 63.786 16.892V23.618H61.686L61.6851 14.828Z" fill="white"/>
<path d="M67.0171 14.8279H69.1541V15.2959C69.3056 15.1097 69.4987 14.9617 69.7179 14.8637C69.9371 14.7658 70.1762 14.7206 70.416 14.7319C70.6932 14.7036 70.9729 14.7526 71.224 14.8733C71.4751 14.994 71.6879 15.1818 71.839 15.4159C72.1366 16.0032 72.2746 16.6585 72.239 17.3159V20.5709C72.2484 21.1357 72.2083 21.7002 72.119 22.2579C72.0577 22.6569 71.8727 23.0267 71.5901 23.3149C71.2473 23.6066 70.8027 23.7505 70.354 23.7149C70.1338 23.7304 69.913 23.6987 69.7061 23.622C69.4991 23.5452 69.3109 23.4252 69.1541 23.2699V25.3699H67.0171V14.8279ZM70.032 21.8179C70.0967 21.5669 70.1251 21.308 70.1161 21.0489V17.3139C70.1254 17.0776 70.0969 16.8413 70.032 16.6139C70.0048 16.536 69.9519 16.4698 69.8818 16.4261C69.8118 16.3825 69.729 16.3641 69.6471 16.3739C69.3191 16.3739 69.1547 16.6783 69.1541 17.2869V21.1419C69.1434 21.3765 69.1773 21.611 69.254 21.8329C69.2855 21.9114 69.3413 21.9777 69.4133 22.022C69.4854 22.0663 69.5698 22.0863 69.6541 22.0789C69.7374 22.0859 69.8204 22.0632 69.8887 22.0149C69.9569 21.9666 70.0058 21.8958 70.027 21.8149" fill="white"/>
<path d="M74.744 22.9709C74.3057 22.3165 74.0985 21.5345 74.155 20.7489V17.2179C74.1322 16.8774 74.1828 16.5359 74.3036 16.2167C74.4243 15.8975 74.6124 15.608 74.855 15.3679C75.3989 14.9155 76.0949 14.6877 76.801 14.7309C77.1415 14.679 77.4894 14.7071 77.8171 14.8129C78.1449 14.9187 78.4435 15.0994 78.6893 15.3406C78.9352 15.5818 79.1216 15.8769 79.2336 16.2025C79.3457 16.5282 79.3803 16.8755 79.3349 17.2169V17.8519C79.3349 18.4926 79.327 19.0129 79.311 19.4129H76.261V21.1179C76.253 21.3602 76.2868 21.6021 76.3609 21.8329C76.394 21.8996 76.4427 21.9574 76.5028 22.0013C76.5629 22.0452 76.6327 22.074 76.7063 22.0852C76.7799 22.0963 76.8551 22.0896 76.9255 22.0655C76.996 22.0415 77.0596 22.0008 77.1109 21.9469C77.1793 21.8494 77.2209 21.7356 77.2311 21.6169C77.2431 21.4929 77.249 21.3109 77.249 21.0709V20.2179H79.339V20.7179C79.4032 21.5181 79.1937 22.3163 78.745 22.9819C78.4798 23.2487 78.1582 23.4525 77.8037 23.5783C77.4492 23.7042 77.071 23.7488 76.697 23.7089C76.3371 23.744 75.9739 23.695 75.6362 23.5657C75.2985 23.4364 74.9954 23.2304 74.751 22.9639M77.251 18.3639V17.2419C77.251 16.6092 77.0949 16.2929 76.7829 16.2929C76.4303 16.2929 76.254 16.6092 76.254 17.2419V18.3709L77.251 18.3639Z" fill="white"/>
<path d="M15.649 0.941895L2.24902 12.3119L0.140015 23.9389H37.0641L35.469 12.5849L15.649 0.941895Z" fill="#D44725"/>
<path d="M17.0601 14.7399V19.9099C16.9384 15.1974 15.7738 10.5705 13.65 6.36193L14.118 6.10693C14.9057 7.64655 15.561 9.25032 16.077 10.9009C16.4812 12.1599 16.8101 13.4419 17.062 14.7399" fill="white"/>
<path d="M21.004 6.36193C20.2302 7.87585 19.5866 9.45287 19.0801 11.0759C18.1483 13.9303 17.6474 16.9078 17.5941 19.9099V14.7399C17.8457 13.4419 18.1743 12.16 18.5781 10.9009C19.0942 9.25019 19.7498 7.64639 20.5381 6.10693L21.004 6.36193Z" fill="white"/>
<path d="M17.0591 17.4098V18.4628C16.2054 16.9681 15.2487 15.5347 14.196 14.1728C13.0279 12.6368 11.7313 11.203 10.3201 9.88682L10.6721 9.48682C12.1058 10.8224 13.4233 12.2777 14.6101 13.8368C15.494 14.9803 16.3109 16.1733 17.0591 17.4098Z" fill="white"/>
<path d="M17.0601 20.0248V20.7448C15.3918 19.2153 13.5641 17.8695 11.6082 16.7308C10.1473 15.8615 8.61503 15.1181 7.02808 14.5088L7.20605 14.0088C8.82063 14.6279 10.3796 15.3833 11.8661 16.2668C13.7198 17.3446 15.4618 18.6042 17.0662 20.0268" fill="white"/>
<path d="M24.3411 9.89192C22.9279 11.2068 21.6289 12.6393 20.4581 14.1739C19.4042 15.5333 18.4461 16.9644 17.5911 18.4569V17.4049C18.3402 16.1699 19.1592 14.9786 20.0441 13.8369C21.2331 12.2797 22.5525 10.8264 23.988 9.49292L24.3411 9.89192Z" fill="white"/>
<path d="M27.6711 14.5788C26.079 15.1718 24.54 15.8991 23.071 16.7528C21.1101 17.8666 19.2743 19.1875 17.5951 20.6928V19.9798C19.2095 18.5768 20.9591 17.3374 22.8181 16.2798C24.3141 15.4121 25.881 14.6731 27.5021 14.0708L27.6711 14.5788Z" fill="white"/>
<path d="M17.5921 4.52393H17.0591V23.9379H17.5921V4.52393Z" fill="white"/>
<path d="M24.979 13.1819L24.973 12.7209L24.5121 12.7469C24.2899 12.7555 24.0801 12.8516 23.9284 13.0142C23.7767 13.1767 23.6953 13.3927 23.7021 13.6149L23.708 14.0759L24.1681 14.0499C24.3905 14.0416 24.6005 13.9457 24.7525 13.7831C24.9044 13.6205 24.9858 13.4044 24.979 13.1819Z" fill="white"/>
<path d="M21.703 15.2298L21.44 14.8508L21.073 15.1298C20.8935 15.2612 20.7732 15.4584 20.7386 15.6782C20.7039 15.898 20.7576 16.1225 20.888 16.3028L21.151 16.6818L21.518 16.4028C21.6976 16.2714 21.8179 16.0743 21.8526 15.8545C21.8872 15.6347 21.8335 15.4101 21.703 15.2298Z" fill="white"/>
<path d="M21.343 10.604L21.2921 10.146L20.836 10.217C20.6158 10.2471 20.4164 10.363 20.2812 10.5394C20.146 10.7158 20.0859 10.9385 20.1141 11.159L20.165 11.617L20.6211 11.547C20.8416 11.5171 21.0413 11.4012 21.1766 11.2245C21.3119 11.0478 21.3717 10.8247 21.343 10.604Z" fill="white"/>
<path d="M13.95 11.547L14.4061 11.618L14.456 11.16C14.4847 10.9393 14.4249 10.7162 14.2896 10.5395C14.1543 10.3628 13.9546 10.2468 13.7341 10.217L13.278 10.147L13.2281 10.605C13.1994 10.8257 13.2592 11.0487 13.3945 11.2255C13.5298 11.4022 13.7295 11.5171 13.95 11.547Z" fill="white"/>
<path d="M27.3981 16.7099L27.6711 16.3389L27.2881 16.0819C27.1062 15.9545 26.8814 15.9041 26.6625 15.9415C26.4436 15.979 26.2484 16.1013 26.1191 16.2819L25.8461 16.6539L26.2291 16.9108C26.411 17.0388 26.6361 17.0895 26.8553 17.0521C27.0746 17.0146 27.27 16.8919 27.399 16.7109" fill="white"/>
<path d="M19.2831 6.71088L19.1321 6.27588L18.703 6.44588C18.495 6.52449 18.3265 6.6821 18.2341 6.88438C18.1418 7.08666 18.1332 7.31723 18.2101 7.52588L18.3621 7.96088L18.7901 7.79088C18.9981 7.71227 19.1666 7.55466 19.2589 7.35238C19.3513 7.1501 19.36 6.91953 19.2831 6.71088Z" fill="white"/>
<path d="M15.8969 7.79088L16.3249 7.96088L16.477 7.52588C16.5539 7.31723 16.5452 7.08666 16.4528 6.88438C16.3605 6.6821 16.192 6.52449 15.984 6.44588L15.555 6.27588L15.404 6.71088C15.3269 6.91964 15.3355 7.15043 15.428 7.35281C15.5206 7.55518 15.6886 7.71268 15.8969 7.79088Z" fill="white"/>
<path d="M24.3741 18.531L24.8171 18.405L24.6711 17.967C24.605 17.7547 24.4575 17.5772 24.261 17.4732C24.0645 17.3693 23.8348 17.3472 23.6221 17.412L23.1781 17.539L23.3241 17.976C23.3905 18.1883 23.5381 18.3658 23.7347 18.4698C23.9314 18.5737 24.1613 18.5957 24.3741 18.531Z" fill="white"/>
<path d="M10.8471 14.0499L11.3072 14.0759L11.3132 13.6149C11.3199 13.3925 11.2384 13.1764 11.0865 13.0138C10.9346 12.8512 10.7245 12.7553 10.5021 12.7469L10.0422 12.7209L10.0362 13.1819C10.0292 13.4043 10.1104 13.6204 10.2621 13.783C10.4139 13.9456 10.6248 14.0416 10.8471 14.0499Z" fill="white"/>
<path d="M13.4952 16.4028L13.8621 16.6818L14.1252 16.3028C14.2556 16.1225 14.3092 15.898 14.2746 15.6782C14.2399 15.4584 14.1197 15.2612 13.9401 15.1298L13.5732 14.8508L13.3101 15.2298C13.1797 15.4101 13.126 15.6347 13.1607 15.8545C13.1953 16.0743 13.3156 16.2714 13.4952 16.4028Z" fill="white"/>
<path d="M8.78796 16.9128L9.17102 16.6558L8.89795 16.2838C8.7687 16.1029 8.57325 15.9804 8.35413 15.943C8.135 15.9055 7.91002 15.9561 7.72803 16.0838L7.34497 16.3408L7.61804 16.7128C7.74729 16.8937 7.94274 17.0161 8.16187 17.0536C8.38099 17.0911 8.60597 17.0405 8.78796 16.9128Z" fill="white"/>
<path d="M11.692 17.976L11.837 17.539L11.394 17.412C11.1812 17.3472 10.9514 17.3692 10.7548 17.4732C10.5581 17.5772 10.4104 17.7547 10.344 17.967L10.199 18.405L10.6421 18.531C10.8549 18.5958 11.0847 18.5738 11.2814 18.4698C11.4781 18.3658 11.6256 18.1883 11.692 17.976Z" fill="white"/>
</svg>
