<svg width="64" height="26" viewBox="0 0 64 26" fill="none" xmlns="http://www.w3.org/2000/svg">
<path d="M35.611 0.976135C36.046 0.973934 36.4794 1.03113 36.899 1.14614C37.2936 1.251 37.6648 1.42947 37.993 1.67214C38.3126 1.90981 38.5733 2.21773 38.755 2.57214C38.9542 2.97586 39.0517 3.42214 39.0391 3.87214V7.30814C39.0516 7.75427 38.954 8.19663 38.755 8.59614C38.5739 8.9457 38.3129 9.24756 37.993 9.47714C37.6618 9.71009 37.2912 9.88118 36.899 9.98214C36.4784 10.0909 36.0455 10.1454 35.611 10.1441H32.324V0.976135H35.611ZM35.611 8.63914C35.8591 8.64045 36.1067 8.61666 36.35 8.56814C36.5671 8.52626 36.7756 8.44745 36.9661 8.33514C37.1381 8.23381 37.282 8.09117 37.385 7.92014C37.4927 7.73314 37.5461 7.5198 37.5391 7.30414V3.86014C37.5445 3.64083 37.4913 3.42404 37.385 3.23214C37.2813 3.05662 37.1378 2.90795 36.9661 2.79814C36.7762 2.68186 36.5678 2.59899 36.35 2.55314C36.1072 2.50001 35.8594 2.47352 35.611 2.47414H33.811V8.63514H35.611V8.63914Z" fill="white"/>
<path d="M43.905 5.55295C43.9068 5.40053 43.867 5.2505 43.79 5.11895C43.7111 4.9926 43.6044 4.88591 43.478 4.80695C43.3405 4.72194 43.1897 4.66043 43.032 4.62495C42.8595 4.58524 42.683 4.56544 42.506 4.56595C42.241 4.56682 41.9781 4.61212 41.728 4.69995C41.4845 4.78232 41.2666 4.92673 41.096 5.11895L40.296 4.28895C40.5995 3.92446 40.9953 3.64817 41.442 3.48895C41.8452 3.35893 42.2663 3.29345 42.6899 3.29495C43.016 3.29401 43.3405 3.33912 43.6539 3.42895C43.9584 3.51436 44.2457 3.65208 44.5029 3.83595C44.7518 4.01719 44.9569 4.25195 45.103 4.52295C45.2595 4.82683 45.3369 5.16525 45.328 5.50695V9.80695C44.9597 9.94432 44.5803 10.05 44.194 10.1229C43.733 10.2144 43.2639 10.2592 42.794 10.2569C42.4504 10.2583 42.1077 10.2248 41.771 10.1569C41.4637 10.0994 41.1693 9.98695 40.902 9.82495C40.6504 9.6693 40.4414 9.45349 40.294 9.19695C40.1291 8.89302 40.0487 8.55049 40.061 8.20495C40.0517 7.87355 40.1249 7.54503 40.2741 7.24895C40.4123 6.98834 40.6049 6.76052 40.839 6.58095C41.077 6.4014 41.3462 6.26747 41.6329 6.18595C41.9292 6.09921 42.2364 6.05543 42.5451 6.05595C42.7835 6.05497 43.0214 6.07606 43.256 6.11895C43.4787 6.15819 43.6961 6.22295 43.9039 6.31195V5.53395L43.905 5.55295ZM42.752 7.20795C42.4106 7.18468 42.0721 7.28279 41.796 7.48495C41.6888 7.57114 41.6027 7.68077 41.5444 7.80541C41.4862 7.93005 41.4573 8.06639 41.46 8.20395C41.4569 8.34383 41.4914 8.48198 41.5599 8.60395C41.6297 8.71647 41.7262 8.80992 41.841 8.87595C41.9634 8.94752 42.0969 8.99821 42.236 9.02595C42.3891 9.05855 42.5454 9.07465 42.702 9.07395C42.9227 9.07526 43.1431 9.0619 43.3619 9.03395C43.5456 9.01254 43.7277 8.97913 43.907 8.93395V7.44595C43.7389 7.36992 43.5627 7.3129 43.382 7.27595C43.1755 7.23269 42.965 7.21157 42.754 7.21295L42.752 7.20795Z" fill="white"/>
<path d="M49.289 10.2661C48.5926 10.3134 47.9045 10.0931 47.3651 9.65007C47.1387 9.43289 46.9618 9.16934 46.8467 8.87749C46.7315 8.58563 46.6809 8.27234 46.6981 7.95907V0.976074H48.119V7.96407C48.1152 8.09247 48.1382 8.22024 48.1866 8.33923C48.235 8.45821 48.3077 8.56579 48.4 8.65507C48.6467 8.86098 48.965 8.9606 49.285 8.93207V10.2671L49.289 10.2661Z" fill="white"/>
<path d="M49.9271 1.75004C49.9236 1.62609 49.9453 1.50272 49.9909 1.38738C50.0364 1.27205 50.1048 1.16716 50.1921 1.07904C50.2779 0.989942 50.3814 0.919666 50.4959 0.87267C50.6104 0.825674 50.7334 0.802984 50.8571 0.806039C50.9819 0.802434 51.1062 0.824844 51.2219 0.871844C51.3375 0.918844 51.4422 0.989405 51.5291 1.07904C51.6177 1.1665 51.6875 1.27111 51.7343 1.38649C51.7811 1.50187 51.8038 1.62557 51.8011 1.75004C51.803 1.87453 51.7799 1.99813 51.7331 2.11351C51.6863 2.2289 51.6169 2.33372 51.5289 2.42176C51.4408 2.50979 51.336 2.57926 51.2206 2.62603C51.1052 2.6728 50.9816 2.69593 50.8571 2.69404C50.7331 2.69695 50.6098 2.6742 50.495 2.62722C50.3803 2.58024 50.2765 2.51005 50.1901 2.42104C50.1032 2.33272 50.0348 2.22779 49.9893 2.1125C49.9438 1.99722 49.922 1.87395 49.9251 1.75004M51.5561 10.136H50.094V3.44404H51.5561V10.136Z" fill="white"/>
<path d="M56.5379 5.55295C56.5397 5.40052 56.5 5.25048 56.4229 5.11895C56.344 4.99261 56.2373 4.88591 56.1109 4.80695C55.9734 4.72197 55.8227 4.66047 55.665 4.62495C55.4925 4.58523 55.316 4.56543 55.139 4.56595C54.874 4.56682 54.6109 4.61212 54.3609 4.69995C54.1175 4.78245 53.8997 4.92684 53.729 5.11895L52.9289 4.28895C53.2324 3.92447 53.6282 3.64817 54.0749 3.48895C54.4781 3.3589 54.8993 3.29342 55.323 3.29495C55.649 3.29399 55.9735 3.3391 56.2869 3.42895C56.5914 3.51442 56.8786 3.65214 57.1359 3.83595C57.3848 4.01719 57.5898 4.25195 57.7359 4.52295C57.8925 4.8268 57.9698 5.16525 57.9609 5.50695V9.80695C57.5926 9.94431 57.2133 10.05 56.827 10.1229C56.366 10.2144 55.8969 10.2592 55.427 10.2569C55.0834 10.2583 54.7406 10.2248 54.4039 10.1569C54.0966 10.0994 53.8023 9.98696 53.535 9.82495C53.2831 9.6693 53.0738 9.4535 52.926 9.19695C52.7614 8.89292 52.6809 8.55046 52.6929 8.20495C52.6836 7.87355 52.7568 7.54504 52.906 7.24895C53.0443 6.98838 53.2369 6.76057 53.4709 6.58095C53.7089 6.4014 53.9782 6.26748 54.265 6.18595C54.5615 6.09912 54.8689 6.05533 55.1779 6.05595C55.4164 6.05496 55.6544 6.07605 55.889 6.11895C56.1117 6.15816 56.3291 6.22293 56.5369 6.31195V5.53395L56.5379 5.55295ZM55.385 7.20895C55.0436 7.18577 54.705 7.28387 54.4289 7.48595C54.3217 7.57214 54.2357 7.68177 54.1774 7.80641C54.1192 7.93106 54.0903 8.06739 54.093 8.20495C54.09 8.34482 54.1245 8.48294 54.1929 8.60495C54.2629 8.71728 54.3594 8.81069 54.474 8.87695C54.5979 8.94902 54.7332 8.99973 54.874 9.02695C55.0271 9.05956 55.1833 9.07566 55.3399 9.07495C55.5606 9.07625 55.7811 9.06289 56 9.03495C56.1836 9.01352 56.3657 8.98011 56.545 8.93495V7.44595C56.3765 7.36991 56.2001 7.31289 56.019 7.27595C55.8125 7.23267 55.6019 7.21155 55.3909 7.21295L55.385 7.20895Z" fill="white"/>
<path d="M61.637 8.94704H61.677C61.8982 8.95257 62.1154 8.88741 62.297 8.76103C62.3848 8.69526 62.4562 8.60999 62.5055 8.51195C62.5548 8.41391 62.5805 8.30577 62.5809 8.19604C62.5835 8.08745 62.5482 7.98136 62.481 7.89604C62.4124 7.81027 62.3261 7.74034 62.228 7.69104C62.1194 7.63213 62.0037 7.58711 61.8839 7.55704C61.7579 7.52104 61.6389 7.49404 61.5289 7.46604C61.2684 7.41672 61.011 7.35228 60.7579 7.27304C60.4824 7.1902 60.2204 7.06793 59.98 6.91004C59.7394 6.75191 59.5349 6.54472 59.38 6.30204C59.2112 6.01685 59.1274 5.68926 59.1389 5.35804C59.1279 5.02789 59.2086 4.70116 59.3719 4.41404C59.521 4.16268 59.7217 3.94588 59.9609 3.77804C60.2045 3.61308 60.4754 3.49255 60.761 3.42204C61.0463 3.34902 61.3394 3.31174 61.6339 3.31104C62.0181 3.31597 62.3978 3.39509 62.752 3.54404C63.1531 3.71002 63.5161 3.95603 63.819 4.26704L62.9659 5.19904C62.7707 5.00652 62.5346 4.86056 62.275 4.77204C62.0241 4.6813 61.7597 4.6333 61.4929 4.63004C61.2677 4.62478 61.0449 4.67637 60.845 4.78004C60.7587 4.82279 60.6855 4.88778 60.6328 4.96828C60.5801 5.04879 60.5497 5.14191 60.5449 5.23804C60.5266 5.37149 60.556 5.50712 60.6279 5.62104C60.7035 5.73074 60.8034 5.82145 60.9199 5.88604C61.0489 5.95747 61.1855 6.01448 61.327 6.05604C61.4697 6.09732 61.6146 6.1307 61.761 6.15604C62.0295 6.20033 62.2947 6.26247 62.5549 6.34204C62.8088 6.4204 63.0478 6.54074 63.262 6.69804C63.4717 6.85582 63.6453 7.05665 63.771 7.28704C63.9131 7.55978 63.9819 7.8647 63.9709 8.17204C63.9788 8.49092 63.9124 8.80726 63.777 9.09604C63.6553 9.34913 63.4787 9.57188 63.26 9.74804C63.0365 9.92661 62.7818 10.0622 62.5089 10.148C62.224 10.2383 61.9268 10.2835 61.6279 10.282C61.3601 10.2824 61.0934 10.2488 60.834 10.182C60.571 10.1181 60.3185 10.0171 60.084 9.88204C59.8438 9.74731 59.6252 9.57706 59.4359 9.37704C59.239 9.1699 59.0788 8.93084 58.9619 8.67004L60.025 7.98304C60.1945 8.29177 60.4515 8.54336 60.7639 8.70603C61.0249 8.8523 61.3178 8.93231 61.6169 8.93904L61.637 8.94704Z" fill="white"/>
<path d="M34.655 23.242V16.026L33.667 17.093L32.506 16.161L34.8561 13.676H36.156V23.243H34.656L34.655 23.242Z" fill="white"/>
<path d="M41.034 21.8479C41.2905 21.8491 41.5464 21.8199 41.7961 21.7609C42.0262 21.7081 42.2473 21.6215 42.4521 21.5039C42.634 21.3964 42.7892 21.249 42.9061 21.0729C43.0213 20.8884 43.0803 20.6744 43.076 20.4569V19.0909C42.9748 19.2474 42.8415 19.3807 42.685 19.4819C42.5229 19.5893 42.3478 19.6756 42.164 19.7389C41.9777 19.8017 41.7858 19.8466 41.591 19.8729C41.4078 19.8987 41.223 19.9117 41.038 19.9119C40.5943 19.9135 40.1525 19.8522 39.726 19.7299C39.3196 19.6158 38.9369 19.4299 38.596 19.1809C38.2688 18.9408 37.9962 18.634 37.7961 18.2809C37.5891 17.8953 37.4856 17.4625 37.496 17.0249V16.4559C37.4851 16.0119 37.5885 15.5726 37.7961 15.1799C37.9944 14.8219 38.2671 14.5105 38.596 14.2669C38.936 14.0166 39.319 13.8305 39.726 13.7179C40.1525 13.5956 40.5943 13.5343 41.038 13.5359C41.484 13.5348 41.9279 13.5961 42.357 13.7179C42.7674 13.8312 43.1543 14.0171 43.4991 14.2669C43.8296 14.5105 44.1042 14.8218 44.305 15.1799C44.5144 15.5725 44.623 16.011 44.621 16.4559V20.4669C44.6319 20.9124 44.5243 21.3528 44.309 21.7429C44.1069 22.0977 43.8307 22.4047 43.4991 22.6429C43.1504 22.8886 42.7615 23.0716 42.35 23.1839C41.9235 23.3048 41.4823 23.3661 41.039 23.3659C40.6923 23.3661 40.3471 23.3211 40.012 23.2319C39.322 23.0513 38.6939 22.6867 38.195 22.1769C37.9325 21.9067 37.7152 21.596 37.5511 21.2569L38.823 20.6369C39.0618 21.0337 39.4087 21.3542 39.823 21.5609C40.2026 21.7438 40.6186 21.8382 41.04 21.8369L41.034 21.8479ZM39.047 17.0249C39.0411 17.2401 39.1003 17.452 39.217 17.6329C39.3321 17.8038 39.4813 17.9492 39.6551 18.0599C39.8494 18.1784 40.0613 18.2652 40.283 18.3169C40.5285 18.3764 40.7804 18.4056 41.033 18.4039C41.2893 18.4045 41.5448 18.3766 41.795 18.3209C42.0267 18.2735 42.2486 18.1865 42.451 18.0639C42.6312 17.9541 42.786 17.8072 42.9051 17.6329C43.0203 17.4514 43.0793 17.2399 43.075 17.0249V16.4669C43.081 16.2517 43.0218 16.0398 42.9051 15.8589C42.7868 15.6853 42.6317 15.5399 42.451 15.4329C42.2482 15.313 42.0263 15.2288 41.795 15.1839C41.5448 15.1284 41.2893 15.1006 41.033 15.1009C40.7807 15.1001 40.5291 15.128 40.283 15.1839C40.0617 15.2329 39.8498 15.317 39.6551 15.4329C39.479 15.5403 39.3292 15.6859 39.217 15.8589C39.1004 16.0398 39.0412 16.2518 39.047 16.4669V17.0249Z" fill="white"/>
<path d="M49.495 15.105C49.24 15.1044 48.9857 15.1323 48.7369 15.188C48.5079 15.2362 48.2888 15.3231 48.089 15.445C47.9088 15.5544 47.7541 15.701 47.635 15.875C47.5185 16.053 47.4592 16.2623 47.465 16.475V17.89C47.5933 17.725 47.7464 17.581 47.9189 17.463C48.0816 17.3521 48.2582 17.263 48.444 17.198C48.6209 17.1369 48.8035 17.0934 48.989 17.068C49.1547 17.0451 49.3217 17.0331 49.489 17.032C49.9258 17.0307 50.3605 17.092 50.7799 17.214C51.1816 17.3274 51.5592 17.5135 51.8939 17.763C52.215 18.0045 52.4816 18.3112 52.676 18.663C52.8819 19.0476 52.9852 19.4788 52.9759 19.915V20.507C52.9847 20.9431 52.8814 21.3742 52.676 21.759C52.4826 22.1094 52.2158 22.414 51.8939 22.652C51.5579 22.8974 51.1806 23.0806 50.7799 23.193C50.3604 23.3149 49.9258 23.3761 49.489 23.375C49.0459 23.3748 48.6048 23.3163 48.177 23.201C47.7714 23.0925 47.3886 22.912 47.047 22.668C46.7168 22.4311 46.4435 22.1237 46.2469 21.768C46.0399 21.3823 45.9366 20.9495 45.947 20.512V16.405C45.9366 15.9674 46.0399 15.5346 46.2469 15.149C46.4442 14.7938 46.7174 14.4865 47.047 14.249C47.3888 14.0052 47.7715 13.8246 48.177 13.716C48.6041 13.5968 49.0456 13.5369 49.489 13.538C50.1479 13.5329 50.7987 13.6829 51.3889 13.976C52.0074 14.3026 52.4973 14.8287 52.7789 15.469L51.401 16.077C51.2479 15.744 50.9756 15.4803 50.6379 15.338C50.2746 15.1786 49.8817 15.0978 49.485 15.101L49.495 15.105ZM51.47 19.928C51.475 19.7154 51.4157 19.5063 51.2999 19.328C51.1847 19.1563 51.0357 19.01 50.8619 18.898C50.6689 18.7752 50.4567 18.6856 50.234 18.633C49.9938 18.5742 49.7473 18.545 49.5 18.546C49.2448 18.5454 48.9904 18.5746 48.7419 18.633C48.5145 18.6865 48.2962 18.7731 48.094 18.89C47.9111 18.9975 47.7557 19.1461 47.64 19.324C47.5249 19.5026 47.4657 19.7115 47.47 19.924V20.424C47.4639 20.6392 47.5232 20.8511 47.64 21.032C47.7581 21.206 47.9131 21.3518 48.094 21.459C48.2957 21.5769 48.5142 21.6636 48.7419 21.716C48.9902 21.7752 49.2447 21.8044 49.5 21.803C49.7473 21.8049 49.9939 21.7757 50.234 21.716C50.4567 21.6634 50.6689 21.5738 50.8619 21.451C51.0365 21.3399 51.1857 21.1934 51.2999 21.021C51.4154 20.8455 51.4747 20.639 51.47 20.429V19.923V19.928Z" fill="white"/>
<path d="M7.58911 23.3681C8.53312 22.33 9.3195 21.1588 9.9231 19.8921H17.8701C18.8895 19.9048 19.8926 19.6371 20.77 19.1181C21.0485 18.9463 21.3115 18.7506 21.556 18.5331C22.3659 17.801 22.9417 16.8461 23.2111 15.7881C23.4868 14.6352 23.3815 13.4241 22.911 12.3361C22.5187 11.4527 21.8973 10.6903 21.1111 10.1281C21.8144 9.20743 22.5187 8.28843 23.224 7.37109C24.4966 8.33689 25.4927 9.62072 26.1118 11.0935C26.7309 12.5663 26.9514 14.1761 26.7511 15.7611C26.4473 17.8098 25.4319 19.6862 23.8831 21.0611C22.1547 22.5757 19.9279 23.3987 17.63 23.3721H7.59302L7.58911 23.3681Z" fill="#F3040C"/>
<path d="M0.400024 25.8729C1.73297 25.3427 2.92433 24.5098 3.88 23.4399C4.62505 22.575 5.2169 21.5892 5.63 20.5249C6.12361 19.3322 6.48287 18.0882 6.70105 16.8159C7.29005 13.8159 7.40097 10.9269 7.94897 8.60395C8.0402 8.21518 8.15646 7.83272 8.297 7.45895C8.59415 6.6815 8.99118 5.946 9.47803 5.27095C10.3931 4.11567 11.5941 3.21943 12.962 2.67095C12.9731 2.66728 12.9836 2.66188 12.993 2.65495C14.4223 1.99948 15.9787 1.66759 17.551 1.68295C19.5166 1.66543 21.4797 1.82407 23.417 2.15695C25.0387 2.43843 26.6375 2.83952 28.2001 3.35695C27.155 3.31855 26.116 3.53115 25.17 3.97695C24.576 4.27512 24.0269 4.65552 23.5391 5.10695C22.0901 6.58143 20.7562 8.16473 19.5491 9.84295C18.4271 11.1659 16.958 12.5429 15.161 12.7539C14.083 12.877 12.9949 12.6336 12.072 12.0629C13.0239 10.0999 14.3951 8.36983 16.089 6.99495C16.6691 6.51965 17.2816 6.08527 17.922 5.69495C19.2473 4.88687 20.6773 4.26471 22.172 3.84595C19.346 4.35984 16.6623 5.47092 14.3 7.10495C13.5949 7.60189 12.9528 8.18283 12.3881 8.83495C12.3795 8.84379 12.3714 8.85314 12.364 8.86295C11.9252 9.34518 11.5362 9.87051 11.203 10.4309C10.5931 11.6423 10.2268 12.9615 10.125 14.3139C9.97247 15.5556 9.67545 16.7752 9.23999 17.9479C8.88824 18.9764 8.4021 19.9539 7.79407 20.8549C6.96654 22.1499 5.88338 23.2624 4.61096 24.1242C3.33855 24.986 1.90362 25.579 0.394043 25.8669" fill="#F3040C"/>
</svg>
