<svg xmlns="http://www.w3.org/2000/svg" viewBox="0 0 56.94 22.75"><defs><style>.cls-1{fill:#757575;}</style></defs><g id="Capa_2" data-name="Capa 2"><g id="Capa_1-2" data-name="Capa 1"><g id="Grupo_915" data-name="Grupo 915"><path id="Trazado_751" data-name="Trazado 751" class="cls-1" d="M28.78,18c.16.07.27-.13.38-.23a42.54,42.54,0,0,1,9.5-5.94,23.13,23.13,0,0,1,10-2.26,4.93,4.93,0,0,0,1.15.06.87.87,0,0,0-.32-.48c-2.34-2.68-4.72-5.32-7-8A2.24,2.24,0,0,0,40,.08H39.9A17.44,17.44,0,0,0,28.7,6.4a1.58,1.58,0,0,0-.4,1.14c.14,3.32.26,6.65.38,10,0,.15-.07.36.1.44"/><path id="Trazado_752" data-name="Trazado 752" class="cls-1" d="M4.79,13.2c2.33-.08,4.67-.15,7,0A44.94,44.94,0,0,1,20,14.25a18.51,18.51,0,0,1,7.56,3.4s.06,0,.09,0a.35.35,0,0,0,0-.14c0-3.43,0-6.85,0-10.28a.67.67,0,0,0-.36-.63c-.57-.32-1.12-.68-1.71-1A19.29,19.29,0,0,0,14.81,3.76a2.82,2.82,0,0,0-1.88.69c-2.2,2.17-4.47,4.27-6.71,6.41L3.8,13.18l0,.1,1-.08"/><path id="Trazado_753" data-name="Trazado 753" class="cls-1" d="M54.56,18.8l-.13,0v1.39c0,.4-.15.56-.58.54-1.17-.06-2.34-.08-3.51-.13L40,20.18c-2.9-.11-5.8-.2-8.69-.33a1.72,1.72,0,0,0-1.17.27,2.5,2.5,0,0,1-1.09.35,5.94,5.94,0,0,1-3-.5,1.44,1.44,0,0,0-.65-.15l-3,.14-11.62.41-3,.14-4.85.16c-.24,0-.35-.09-.35-.33s0-.52,0-.77l-.11,0L0,22.67a.45.45,0,0,0,.39.06l4.22-.21,6.14-.31,8.78-.47,4.32-.25a5.05,5.05,0,0,1,2.52.32,4.58,4.58,0,0,0,4.34-.27,2.69,2.69,0,0,1,1.69-.35q3.33.24,6.66.45c2.3.15,4.6.27,6.91.42l10.6.66c.11,0,.25.08.37-.1l-2.38-3.83"/><path id="Trazado_754" data-name="Trazado 754" class="cls-1" d="M4.17,19.63l10.18-.27,10.52-.22c.22,0,.44,0,.66-.06l0-.08-.17-.08A46.28,46.28,0,0,0,7.54,16.26a30.45,30.45,0,0,0-3.82.34c-.27,0-.4.13-.39.43,0,.62,0,1.25.08,1.87s.09.74.76.73"/><path id="Trazado_755" data-name="Trazado 755" class="cls-1" d="M49.6,11.05c-1.3.08-2.59.11-3.88.3A31.3,31.3,0,0,0,35.06,15a23.67,23.67,0,0,0-3.33,2.2A21.85,21.85,0,0,1,36,15.87a44.57,44.57,0,0,1,6.8-.89,72,72,0,0,1,8.31,0c.33,0,.88.21,1-.09s-.46-.5-.79-.64a7.79,7.79,0,0,0-3.23-.6,35.38,35.38,0,0,0-7.26.7l-2.29.45v-.13a31.53,31.53,0,0,1,8.72-2,20.31,20.31,0,0,1,4.27.09c.11,0,.25.06.31,0s-.06-.23-.14-.32a9.12,9.12,0,0,0-1.46-1.24.9.9,0,0,0-.55-.13"/><path id="Trazado_756" data-name="Trazado 756" class="cls-1" d="M37.08,17.5a31.44,31.44,0,0,0-4.33,1.25,1.71,1.71,0,0,0,.32,0c1.57-.17,3.14-.22,4.7-.25a80.77,80.77,0,0,1,14.66.79c.33.05.44-.06.45-.37,0-.54.07-1.09.08-1.63,0-1,0-1-1-1.05a58.26,58.26,0,0,0-14.9,1.26"/><path id="Trazado_757" data-name="Trazado 757" class="cls-1" d="M4.07,15.56c1-.08,2-.2,3-.23a49.31,49.31,0,0,1,12.42,1A45.24,45.24,0,0,1,25.39,18a20.42,20.42,0,0,0-5-2.15A43.75,43.75,0,0,0,5.15,14.52c-.41,0-.83.08-1.24.14s-.33.38-.31.65.25.27.47.25"/></g></g></g></svg>