<svg id="Grupo_2435" data-name="Grupo 2435" xmlns="http://www.w3.org/2000/svg" width="65.619" height="21.877" viewBox="0 0 65.619 21.877">
  <rect id="Rectángulo_57" data-name="Rectángulo 57" width="0.648" height="3.489" transform="translate(0 18.338)" fill="#002329"/>
  <path id="Trazado_2178" data-name="Trazado 2178" d="M473.713,82.291V78.8h.533l2.188,2.692h-.264V78.8h.638v3.489h-.533L474.092,79.6h.264v2.692Z" transform="translate(-471.127 -60.464)" fill="#002329"/>
  <path id="Trazado_2179" data-name="Trazado 2179" d="M491.723,82.291V78.8h.533l1.525,2.547H493.5L495,78.8h.533l.01,3.489h-.623V79.764h.125L493.782,81.9h-.294l-1.3-2.133h.15v2.527Z" transform="translate(-484.102 -60.464)" fill="#002329"/>
  <path id="Trazado_2180" data-name="Trazado 2180" d="M513.293,82.212a2.059,2.059,0,0,1-.75-.134,1.8,1.8,0,0,1-.6-.379,1.719,1.719,0,0,1-.394-.571,1.891,1.891,0,0,1,0-1.426,1.693,1.693,0,0,1,.394-.568,1.822,1.822,0,0,1,.6-.376,2.175,2.175,0,0,1,1.5,0,1.764,1.764,0,0,1,.6.374,1.708,1.708,0,0,1,.391.571,1.817,1.817,0,0,1,.14.718,1.8,1.8,0,0,1-.14.715,1.729,1.729,0,0,1-.987.947,2.069,2.069,0,0,1-.748.132m0-.568a1.284,1.284,0,0,0,.486-.09,1.151,1.151,0,0,0,.386-.254,1.176,1.176,0,0,0,.257-.389,1.286,1.286,0,0,0,.092-.493,1.318,1.318,0,0,0-.09-.494,1.127,1.127,0,0,0-.257-.389,1.177,1.177,0,0,0-.389-.254,1.283,1.283,0,0,0-.486-.09,1.321,1.321,0,0,0-.491.09,1.118,1.118,0,0,0-.391.257,1.283,1.283,0,0,0-.259,1.368,1.23,1.23,0,0,0,.259.391,1.118,1.118,0,0,0,.391.257,1.321,1.321,0,0,0,.491.09" transform="translate(-498.285 -60.335)" fill="#002329"/>
  <path id="Trazado_2181" data-name="Trazado 2181" d="M530.881,82.291V78.8h1.64a1.567,1.567,0,0,1,.952.247.784.784,0,0,1,.329.661.846.846,0,0,1-.129.476.869.869,0,0,1-.347.3,1.05,1.05,0,0,1-.471.107l.09-.179a1.258,1.258,0,0,1,.528.107.86.86,0,0,1,.369.312.905.905,0,0,1,.134.508.814.814,0,0,1-.341.7,1.713,1.713,0,0,1-1.014.249Zm.648-.508h1.052a1.062,1.062,0,0,0,.554-.12.474.474,0,0,0,0-.765,1.044,1.044,0,0,0-.554-.122h-1.1v-.5h.967a.95.95,0,0,0,.518-.12.4.4,0,0,0,.184-.359.4.4,0,0,0-.184-.364.95.95,0,0,0-.518-.119h-.917Z" transform="translate(-512.314 -60.464)" fill="#002329"/>
  <rect id="Rectángulo_58" data-name="Rectángulo 58" width="0.648" height="3.489" transform="translate(23.352 18.338)" fill="#002329"/>
  <path id="Trazado_2182" data-name="Trazado 2182" d="M557.236,82.291V78.8h.648v2.941h1.825v.548Z" transform="translate(-531.302 -60.464)" fill="#002329"/>
  <rect id="Rectángulo_59" data-name="Rectángulo 59" width="0.648" height="3.489" transform="translate(29.916 18.338)" fill="#002329"/>
  <path id="Trazado_2183" data-name="Trazado 2183" d="M578.953,82.291l1.57-3.489h.638l1.575,3.489h-.683l-1.346-3.145h.259l-1.351,3.145Zm.723-.808.179-.508h1.879l.174.508Z" transform="translate(-546.949 -60.464)" fill="#002329"/>
  <path id="Trazado_2184" data-name="Trazado 2184" d="M597.623,82.291V78.8h1.436a1.955,1.955,0,0,1,.795.147,1.135,1.135,0,0,1,.511.426,1.206,1.206,0,0,1,.18.668,1.173,1.173,0,0,1-.18.658,1.16,1.16,0,0,1-.511.423,1.922,1.922,0,0,1-.795.15h-1.072l.284-.289v1.306Zm.648-1.236-.284-.314h1.042a.976.976,0,0,0,.645-.184.638.638,0,0,0,.217-.514.63.63,0,0,0-.217-.511.985.985,0,0,0-.645-.182h-1.042l.284-.319Zm1.635,1.236-.882-1.266h.693l.888,1.266Z" transform="translate(-560.4 -60.464)" fill="#002329"/>
  <rect id="Rectángulo_60" data-name="Rectángulo 60" width="0.648" height="3.489" transform="translate(41.864 18.338)" fill="#002329"/>
  <path id="Trazado_2185" data-name="Trazado 2185" d="M621.7,82.291l1.57-3.489h.638l1.575,3.489H624.8l-1.346-3.145h.259l-1.351,3.145Zm.723-.808.18-.508h1.879l.174.508Z" transform="translate(-577.742 -60.464)" fill="#002329"/>
  <path id="Trazado_2186" data-name="Trazado 2186" d="M481.117,13.2l-3.286,8.7L474.6,13.2h-3.727l-5.72,15.041h4.3l3.23-9.063,3.286,9.063h3.794L483,19.179l3.286,9.063h4.192L484.8,13.2Z" transform="translate(-464.96 -13.201)" fill="#d9191b"/>
  <path id="Trazado_2187" data-name="Trazado 2187" d="M553.234,13.2l-3.114,8.255,2.142,5.7,2.843-7.978,3.286,9.063h4.175L556.858,13.2Z" transform="translate(-526.175 -13.201)" fill="#002329"/>
  <path id="Trazado_2188" data-name="Trazado 2188" d="M606.819,13.2l-5.13,6.84V13.2h-4.006V28.241h4.006V21.4l5.13,6.842h4.162l-5.4-7.521,5.4-7.52Z" transform="translate(-560.442 -13.201)" fill="#002329"/>
  <path id="Trazado_2189" data-name="Trazado 2189" d="M652.25,13.2V28.241h13.126V24.523H655.9V22.569h7.583V18.809H655.9V16.834h9.473V13.2Z" transform="translate(-599.757 -13.201)" fill="#002329"/>
</svg>
