<svg xmlns="http://www.w3.org/2000/svg" viewBox="0 0 22.76 22.76"><defs><style>.cls-1{fill:#fff;}</style></defs><title>Recurso 6icono-new</title><g id="Capa_2" data-name="Capa 2"><g id="Capa_1-2" data-name="Capa 1"><path class="cls-1" d="M20.65,16a6.56,6.56,0,0,1-.39,2.12,3.82,3.82,0,0,1-2.16,2.16,6.56,6.56,0,0,1-2.12.39c-1.2.05-1.56.06-4.6.06s-3.4,0-4.6-.06a6.42,6.42,0,0,1-2.11-.39,3.6,3.6,0,0,1-1.31-.86,3.42,3.42,0,0,1-.85-1.3A6.29,6.29,0,0,1,2.12,16c-.06-1.2-.07-1.56-.07-4.6s0-3.4.07-4.6a6.16,6.16,0,0,1,.39-2.11,3.53,3.53,0,0,1,.85-1.31,3.45,3.45,0,0,1,1.31-.85,6.16,6.16,0,0,1,2.11-.39c1.2-.06,1.56-.07,4.6-.07s3.4,0,4.6.07a6.29,6.29,0,0,1,2.12.39,3.42,3.42,0,0,1,1.3.85,3.69,3.69,0,0,1,.86,1.31,6.42,6.42,0,0,1,.39,2.11c.05,1.2.06,1.56.06,4.6S20.7,14.78,20.65,16ZM22.7,6.69a8.48,8.48,0,0,0-.53-2.76,5.66,5.66,0,0,0-1.32-2,5.39,5.39,0,0,0-2-1.31A8.27,8.27,0,0,0,16.08.07C14.86,0,14.47,0,11.38,0S7.9,0,6.69.07A8.22,8.22,0,0,0,3.93.6a5.51,5.51,0,0,0-2,1.31,5.51,5.51,0,0,0-1.31,2A8.22,8.22,0,0,0,.07,6.69C0,7.9,0,8.29,0,11.38s0,3.48.07,4.69A8.29,8.29,0,0,0,.6,18.84a5.39,5.39,0,0,0,1.31,2,5.66,5.66,0,0,0,2,1.32,8.48,8.48,0,0,0,2.76.53c1.21.05,1.6.06,4.69.06s3.48,0,4.7-.06a8.53,8.53,0,0,0,2.76-.53,5.81,5.81,0,0,0,3.33-3.33,8.55,8.55,0,0,0,.53-2.77c.05-1.21.06-1.6.06-4.69S22.75,7.9,22.7,6.69Z"/><path class="cls-1" d="M11.38,15.18a3.8,3.8,0,1,1,3.8-3.8A3.8,3.8,0,0,1,11.38,15.18Zm0-9.64a5.85,5.85,0,1,0,5.85,5.84A5.83,5.83,0,0,0,11.38,5.54Z"/><path class="cls-1" d="M18.82,5.31a1.37,1.37,0,1,1-1.36-1.37A1.36,1.36,0,0,1,18.82,5.31Z"/></g></g></svg>