<svg width="71" height="30" viewBox="0 0 71 30" fill="none" xmlns="http://www.w3.org/2000/svg">
<mask id="mask0_273_4" style="mask-type:luminance" maskUnits="userSpaceOnUse" x="0" y="0" width="71" height="30">
<path d="M70.302 0.000976562H0V29.545H70.302V0.000976562Z" fill="white"/>
</mask>
<g mask="url(#mask0_273_4)">
<path d="M31.1241 24.3039C31.1235 25.3407 30.8154 26.3542 30.2389 27.216C29.6624 28.0778 28.8433 28.7494 27.8852 29.1457C26.927 29.5421 25.8729 29.6454 24.856 29.4427C23.8391 29.24 22.9052 28.7403 22.1723 28.0068C21.4394 27.2733 20.9404 26.339 20.7385 25.322C20.5365 24.305 20.6407 23.2509 21.0377 22.2931C21.4348 21.3352 22.107 20.5166 22.9692 19.9408C23.8315 19.3649 24.8452 19.0577 25.8821 19.0579C26.5706 19.0577 27.2525 19.1933 27.8886 19.4567C28.5248 19.7201 29.1028 20.1063 29.5897 20.5932C30.0766 21.0801 30.4628 21.6581 30.7262 22.2943C30.9897 22.9305 31.1252 23.6123 31.1251 24.3009" fill="#D91A1B"/>
<path d="M50.7121 24.3039C50.7115 25.3407 50.4035 26.3542 49.8269 27.216C49.2504 28.0778 48.4313 28.7494 47.4732 29.1457C46.515 29.5421 45.4609 29.6454 44.444 29.4427C43.4271 29.24 42.4932 28.7403 41.7603 28.0068C41.0274 27.2733 40.5284 26.339 40.3265 25.322C40.1245 24.305 40.2287 23.2509 40.6257 22.2931C41.0228 21.3352 41.695 20.5166 42.5573 19.9408C43.4195 19.3649 44.4332 19.0577 45.4701 19.0579C46.1586 19.0577 46.8405 19.1933 47.4766 19.4567C48.1128 19.7201 48.6908 20.1063 49.1777 20.5932C49.6646 21.0801 50.0508 21.6581 50.3142 22.2943C50.5777 22.9305 50.7132 23.6123 50.7131 24.3009" fill="#D91A1B"/>
<path d="M70.302 24.3039C70.3014 25.3407 69.9934 26.3542 69.4169 27.216C68.8404 28.0778 68.0213 28.7494 67.0631 29.1457C66.105 29.5421 65.0509 29.6454 64.034 29.4427C63.0171 29.24 62.0832 28.7403 61.3503 28.0068C60.6174 27.2733 60.1184 26.339 59.9164 25.322C59.7145 24.305 59.8186 23.2509 60.2157 22.2931C60.6128 21.3352 61.285 20.5166 62.1472 19.9408C63.0095 19.3649 64.0232 19.0577 65.06 19.0579C65.7486 19.0577 66.4304 19.1933 67.0666 19.4567C67.7028 19.7201 68.2808 20.1063 68.7677 20.5932C69.2546 21.0801 69.6408 21.6581 69.9042 22.2943C70.1676 22.9305 70.3032 23.6123 70.303 24.3009" fill="#D91A1B"/>
<path d="M10.485 24.3039C10.4844 25.3407 10.1764 26.3542 9.59989 27.216C9.02338 28.0778 8.20427 28.7494 7.24613 29.1457C6.28798 29.5421 5.23383 29.6454 4.21696 29.4427C3.20009 29.24 2.26616 28.7403 1.53325 28.0068C0.800345 27.2733 0.301374 26.339 0.0994276 25.322C-0.102519 24.305 0.0016278 23.2509 0.398699 22.2931C0.795771 21.3352 1.46794 20.5166 2.33021 19.9408C3.19248 19.3649 4.20614 19.0577 5.24302 19.0579C5.93158 19.0577 6.61342 19.1933 7.24959 19.4567C7.88576 19.7201 8.4638 20.1063 8.95068 20.5932C9.43756 21.0801 9.82375 21.6581 10.0872 22.2943C10.3506 22.9305 10.4862 23.6123 10.486 24.3009" fill="#D91A1B"/>
<path d="M31.1241 5.24495C31.1241 6.28196 30.8165 7.29568 30.2404 8.15791C29.6642 9.02014 28.8453 9.69215 27.8872 10.0889C26.9292 10.4858 25.8749 10.5895 24.8578 10.3871C23.8408 10.1848 22.9066 9.68531 22.1733 8.95196C21.4401 8.21861 20.9409 7.28431 20.7387 6.2672C20.5365 5.25009 20.6405 4.19587 21.0375 3.23785C21.4344 2.27984 22.1066 1.46106 22.9689 0.885072C23.8313 0.309084 24.8451 0.00175543 25.8821 0.00195322C26.5706 0.00182185 27.2525 0.137346 27.8886 0.400785C28.5248 0.664224 29.1028 1.05042 29.5897 1.5373C30.0766 2.02418 30.4628 2.60222 30.7262 3.23839C30.9897 3.87456 31.1242 4.5564 31.1241 5.24495Z" fill="#D91A1B"/>
<path d="M50.7121 5.24495C50.7121 6.28196 50.4046 7.29568 49.8284 8.15791C49.2523 9.02014 48.4333 9.69215 47.4753 10.0889C46.5172 10.4858 45.4629 10.5895 44.4458 10.3871C43.4288 10.1848 42.4946 9.68531 41.7614 8.95196C41.0282 8.21861 40.5289 7.28431 40.3267 6.2672C40.1245 5.25009 40.2285 4.19587 40.6255 3.23785C41.0224 2.27984 41.6946 1.46106 42.5569 0.885072C43.4193 0.309084 44.4331 0.00175543 45.4701 0.00195322C46.1586 0.00182185 46.8405 0.137346 47.4766 0.400785C48.1128 0.664224 48.6908 1.05042 49.1777 1.5373C49.6646 2.02418 50.0508 2.60222 50.3142 3.23839C50.5777 3.87456 50.7122 4.5564 50.7121 5.24495Z" fill="#D91A1B"/>
<path d="M70.302 5.24495C70.302 6.28196 69.9945 7.29568 69.4184 8.15791C68.8422 9.02014 68.0233 9.69215 67.0652 10.0889C66.1071 10.4858 65.0529 10.5895 64.0358 10.3871C63.0187 10.1848 62.0845 9.68531 61.3513 8.95196C60.6181 8.21861 60.1189 7.28431 59.9167 6.2672C59.7145 5.25009 59.8184 4.19587 60.2154 3.23785C60.6124 2.27984 61.2846 1.46106 62.1469 0.885072C63.0093 0.309084 64.023 0.00175543 65.06 0.00195322C65.7486 0.00182185 66.4304 0.137346 67.0666 0.400785C67.7028 0.664224 68.2808 1.05042 68.7677 1.5373C69.2546 2.02418 69.6408 2.60222 69.9042 3.23839C70.1677 3.87456 70.3022 4.5564 70.302 5.24495Z" fill="#D91A1B"/>
<path d="M10.485 5.24495C10.485 6.28196 10.1775 7.29568 9.60135 8.15791C9.0252 9.02014 8.2063 9.69215 7.2482 10.0889C6.29011 10.4858 5.23587 10.5895 4.2188 10.3871C3.20173 10.1848 2.26752 9.68531 1.53431 8.95196C0.801104 8.21861 0.301836 7.28431 0.0996467 6.2672C-0.102543 5.25009 0.0014289 4.19587 0.398412 3.23785C0.795396 2.27984 1.46756 1.46106 2.3299 0.885072C3.19224 0.309084 4.20602 0.00175543 5.24303 0.00195322C5.93158 0.00182185 6.61342 0.137346 7.24959 0.400785C7.88576 0.664224 8.4638 1.05042 8.95068 1.5373C9.43756 2.02418 9.82375 2.60222 10.0872 3.23839C10.3506 3.87456 10.4862 4.5564 10.486 5.24495" fill="#D91A1B"/>
</g>
</svg>
